#!OML:ASF H:\Male1\Project 1\Capture day 1\Session 1\Male1.ASF
:FULLY-SPECIFIED
:DEGREES
477
root -8.39961 15.1643 11.9079 3.0557 138.241 -360.503
lowerback 9.58709 1.71676 -1.90651
upperback 3.64497 2.30411 -1.67395
thorax -1.58943 1.24669 -0.908891
lowerneck -3.36743 10.1836 12.3586
upperneck -5.47994 13.1651 -11.5417
head 0.517817 6.56637 -5.06312
rclavicle -6.25178e-014 3.18055e-015
rhumerus -40.9476 -3.52314 -80.1988
rradius 40.0073
rwrist -24.2563
rhand -25.513 -0.244431
rfingers 7.12502
rthumb 1.01607 -30.2218
lclavicle -6.25178e-014 3.18055e-015
lhumerus -27.9961 7.29906 76.8869
lradius 47.6222
lwrist 4.55246
lhand -21.3722 8.48139
lfingers 7.12502
lthumb 5.01502 38.402
rfemur -14.0209 11.4849 24.0517
rtibia 31.7269
rfoot -40.0399 -31.8723
rtoes -5.9374
lfemur -6.75065 -22.0935 -18.0772
ltibia 26.4395
lfoot -28.0738 27.6813
ltoes -6.62073
478
root -8.35102 15.1511 11.9328 2.79693 137.894 -360.575
lowerback 9.54699 1.7443 -1.71791
upperback 3.76049 2.36746 -1.6006
thorax -1.44377 1.28019 -0.941246
lowerneck -3.46116 10.3728 12.3669
upperneck -5.28884 13.4143 -11.6505
head 0.626767 6.68768 -5.06743
rclavicle -5.40694e-014 1.43125e-014
rhumerus -40.5144 -3.34996 -80.1814
rradius 40.586
rwrist -24.6984
rhand -25.6333 -0.23214
rfingers 7.12502
rthumb 0.899893 -30.21
lclavicle -5.40694e-014 1.43125e-014
lhumerus -28.0088 7.48089 77.1599
lradius 46.7585
lwrist 4.2915
lhand -20.9621 8.48829
lfingers 7.12502
lthumb 5.41097 38.3992
rfemur -13.4606 12.0788 24.2913
rtibia 31.4229
rfoot -41.147 -31.3843
rtoes -5.23215
lfemur -6.67837 -21.3158 -17.9804
ltibia 26.8851
lfoot -28.149 27.1801
ltoes -6.44883
479
root -8.304 15.1427 11.9541 2.84195 137.607 -360.429
lowerback 9.34299 1.80679 -1.31832
upperback 3.82593 2.49151 -1.51179
thorax -1.25195 1.34294 -1.07656
lowerneck -3.35823 10.4646 12.6409
upperneck -5.19343 13.5403 -12.0192
head 0.701165 6.75028 -5.20892
rclavicle 1.10325e-014 -1.15295e-014
rhumerus -40.1917 -3.19246 -80.2209
rradius 41.0562
rwrist -25.3096
rhand -26.1721 0.0632577
rfingers 7.12502
rthumb 0.379508 -29.9161
lclavicle 1.10325e-014 -1.15295e-014
lhumerus -27.9444 7.54628 77.4049
lradius 45.6565
lwrist 3.44794
lhand -20.3596 8.26271
lfingers 7.12502
lthumb 5.99263 38.158
rfemur -13.1259 12.5638 24.6777
rtibia 31.2525
rfoot -42.0097 -31.0733
rtoes -4.65571
lfemur -6.80223 -20.4252 -17.6211
ltibia 27.3068
lfoot -28.0745 26.5178
ltoes -6.21829
480
root -8.25605 15.1394 11.9731 2.91118 137.33 -360.387
lowerback 9.09273 1.84323 -1.00788
upperback 3.85894 2.56908 -1.4539
thorax -1.06973 1.38195 -1.18736
lowerneck -2.84795 10.5764 13.153
upperneck -5.64152 13.7134 -12.7152
head 0.600693 6.85409 -5.52021
rclavicle -7.55382e-015 7.95139e-015
rhumerus -39.8684 -3.01657 -80.2772
rradius 41.4491
rwrist -25.7583
rhand -26.7388 0.259586
rfingers 7.12502
rthumb -0.16779 -29.7201
lclavicle -7.55382e-015 7.95139e-015
lhumerus -27.8653 7.87024 77.5145
lradius 44.3561
lwrist 2.08261
lhand -19.8219 8.17344
lfingers 7.12502
lthumb 6.51174 38.0533
rfemur -12.9742 12.6571 24.9151
rtibia 31.0555
rfoot -41.9419 -31.1384
rtoes -5.19941
lfemur -7.11893 -19.5522 -17.3322
ltibia 27.8281
lfoot -28.0387 25.8731
ltoes -5.57604
481
root -8.20494 15.1378 11.9912 2.67322 137.016 -360.645
lowerback 8.98636 1.8886 -0.949063
upperback 3.87926 2.63565 -1.44751
thorax -0.987269 1.41524 -1.21519
lowerneck -2.26098 10.6862 13.5783
upperneck -6.05113 13.897 -13.2504
head 0.483999 6.96514 -5.77521
rclavicle -3.55825e-014 2.5842e-014
rhumerus -39.6554 -2.96161 -80.2652
rradius 41.7169
rwrist -25.8185
rhand -27.0991 0.252752
rfingers 7.12502
rthumb -0.515805 -29.7264
lclavicle -3.55825e-014 2.5842e-014
lhumerus -27.9617 8.25666 77.5248
lradius 43.0848
lwrist 0.585139
lhand -19.067 7.96307
lfingers 7.12502
lthumb 7.2405 37.8192
rfemur -12.7796 12.5127 24.9143
rtibia 30.8554
rfoot -41.3132 -31.364
rtoes -6.16935
lfemur -7.37313 -18.6389 -17.3443
ltibia 28.4051
lfoot -27.8108 25.3206
ltoes -5.65385
482
root -8.1532 15.138 12.0156 2.58526 136.812 -360.65
lowerback 9.0025 1.92947 -0.741697
upperback 3.88008 2.70543 -1.38763
thorax -0.988174 1.45069 -1.27683
lowerneck -1.62874 10.6994 14.0526
upperneck -6.46582 13.9574 -13.7832
head 0.347506 7.016 -6.05011
rclavicle -8.64713e-015 3.97569e-016
rhumerus -39.4904 -2.94408 -80.276
rradius 41.7896
rwrist -25.7244
rhand -26.2374 -0.180257
rfingers 7.12502
rthumb 0.316498 -30.1598
lclavicle -8.64713e-015 3.97569e-016
lhumerus -28.0955 8.65153 77.4974
lradius 41.7602
lwrist -0.892957
lhand -18.1828 7.69728
lfingers 7.12502
lthumb 8.09388 37.5223
rfemur -12.5211 12.9479 25.2116
rtibia 30.6955
rfoot -41.4837 -31.667
rtoes -6.20813
lfemur -7.63717 -17.6735 -17.111
ltibia 28.9711
lfoot -27.5832 24.6374
ltoes -6.00387
483
root -8.10563 15.1363 12.0353 2.51141 136.584 -360.509
lowerback 9.11738 1.97523 -0.36176
upperback 3.90583 2.79804 -1.33177
thorax -1.00846 1.50052 -1.44501
lowerneck -1.83931 10.9433 14.1198
upperneck -5.95953 14.279 -13.6196
head 0.562447 7.15958 -5.95569
rclavicle -5.85421e-014 3.4191e-014
rhumerus -39.3758 -2.9096 -80.3188
rradius 41.8407
rwrist -25.6372
rhand -26.1472 -0.266178
rfingers 7.12502
rthumb 0.403613 -30.2455
lclavicle -5.85421e-014 3.4191e-014
lhumerus -28.1673 9.16926 77.4367
lradius 40.2834
lwrist -2.3046
lhand -17.7611 7.72246
lfingers 7.12502
lthumb 8.5009 37.5314
rfemur -12.1319 13.3225 25.636
rtibia 30.5855
rfoot -41.8581 -31.6146
rtoes -5.86709
lfemur -7.73742 -16.7461 -16.8478
ltibia 29.5354
lfoot -27.6006 24.0876
ltoes -5.44083
484
root -8.06122 15.1335 12.0482 2.3848 136.296 -360.574
lowerback 9.13785 2.04148 -0.0926697
upperback 3.89203 2.90597 -1.32244
thorax -1.01911 1.55587 -1.59763
lowerneck -1.65841 11.0767 14.5228
upperneck -5.90182 14.4745 -13.997
head 0.638378 7.2594 -6.11892
rclavicle -1.35024e-013 2.5842e-014
rhumerus -39.3821 -2.88468 -80.294
rradius 41.9354
rwrist -25.6214
rhand -26.1825 -0.243872
rfingers 7.12502
rthumb 0.369476 -30.2233
lclavicle -1.35024e-013 2.5842e-014
lhumerus -28.2686 9.6637 77.3407
lradius 38.7258
lwrist -3.37806
lhand -17.8891 7.6137
lfingers 7.12502
lthumb 8.3774 37.4276
rfemur -11.9069 13.0833 25.7909
rtibia 30.5119
rfoot -41.5483 -31.3998
rtoes -6.50188
lfemur -7.93372 -15.6694 -16.7842
ltibia 30.1125
lfoot -27.6567 23.6017
ltoes -4.69353
485
root -8.01775 15.1255 12.0584 2.19844 135.948 -360.603
lowerback 9.22157 2.102 0.119306
upperback 3.92945 3.00639 -1.22974
thorax -1.01812 1.60787 -1.63315
lowerneck -1.61842 11.1636 14.8222
upperneck -5.61112 14.6048 -14.4028
head 0.79288 7.32218 -6.26325
rclavicle -8.99501e-015 1.8487e-014
rhumerus -39.2994 -2.69806 -80.2359
rradius 41.8875
rwrist -25.7554
rhand -26.1383 -0.124867
rfingers 7.12502
rthumb 0.412201 -30.1042
lclavicle -8.99501e-015 1.8487e-014
lhumerus -28.4807 10.375 77.236
lradius 37.27
lwrist -4.24623
lhand -18.0026 7.5084
lfingers 7.12502
lthumb 8.26786 37.3266
rfemur -11.6264 13.0481 25.9997
rtibia 30.4937
rfoot -41.2718 -31.4664
rtoes -7.9674
lfemur -8.08515 -14.4735 -16.772
ltibia 30.703
lfoot -27.4957 23.4285
ltoes -5.9254
486
root -7.97432 15.1207 12.0684 2.01141 135.69 -360.706
lowerback 9.27254 2.10074 0.15513
upperback 3.96868 3.01064 -1.0434
thorax -1.0139 1.6089 -1.46283
lowerneck -1.57309 11.3735 14.6847
upperneck -5.46464 14.9038 -14.5312
head 0.872388 7.47588 -6.25338
rclavicle -9.0447e-015 -4.67144e-015
rhumerus -39.1801 -2.41451 -80.0782
rradius 41.7927
rwrist -25.8915
rhand -26.2074 -0.0859247
rfingers 7.12502
rthumb 0.345426 -30.0654
lclavicle -9.0447e-015 -4.67144e-015
lhumerus -28.826 11.5345 77.161
lradius 35.9983
lwrist -5.1665
lhand -17.7483 8.05978
lfingers 7.12502
lthumb 8.51327 37.8682
rfemur -11.3216 13.216 26.1732
rtibia 30.4535
rfoot -41.3909 -31.3707
rtoes -8.66326
lfemur -8.39435 -13.1013 -16.7927
ltibia 31.3963
lfoot -27.0488 23.1276
ltoes -8.94442
487
root -7.93563 15.1176 12.0756 1.9769 135.653 -360.757
lowerback 9.31837 2.0221 0.364006
upperback 3.93496 2.92137 -0.89822
thorax -1.07383 1.56271 -1.42441
lowerneck -1.4518 11.6113 14.594
upperneck -5.36583 15.2471 -14.6921
head 0.938407 7.65391 -6.26212
rclavicle -6.40087e-014 9.79014e-015
rhumerus -39.1546 -2.31936 -79.8887
rradius 41.6641
rwrist -25.8535
rhand -26.2175 -0.291295
rfingers 7.12502
rthumb 0.335722 -30.2708
lclavicle -6.40087e-014 9.79014e-015
lhumerus -29.1845 12.7267 76.9696
lradius 34.7253
lwrist -5.93325
lhand -17.5112 8.63865
lfingers 7.12502
lthumb 8.74206 38.4376
rfemur -11.1345 12.9405 26.2858
rtibia 30.3299
rfoot -41.258 -31.0732
rtoes -8.84
lfemur -8.99865 -11.7285 -16.7681
ltibia 32.2714
lfoot -26.471 22.3862
ltoes -11.3674
488
root -7.89403 15.1072 12.0748 2.25922 135.458 -360.173
lowerback 9.41198 2.03939 1.14338
upperback 3.95264 3.01402 -0.757768
thorax -1.07235 1.61523 -1.72846
lowerneck -1.38102 11.7426 14.732
upperneck -5.28003 15.4374 -14.8683
head 1.00594 7.7503 -6.31834
rclavicle -2.82298e-014 1.50176e-014
rhumerus -39.2477 -2.6501 -79.7809
rradius 41.5183
rwrist -25.7266
rhand -26.1171 -0.521271
rfingers 7.12502
rthumb 0.432673 -30.5006
lclavicle -2.82298e-014 1.50176e-014
lhumerus -29.5034 13.5351 76.6399
lradius 33.5139
lwrist -6.43094
lhand -17.3974 8.58222
lfingers 7.12502
lthumb 8.8519 38.3766
rfemur -10.8122 12.8421 26.9018
rtibia 30.1813
rfoot -41.0696 -31.0599
rtoes -9.26512
lfemur -9.44629 -10.4679 -16.3661
ltibia 33.2686
lfoot -26.0823 21.701
ltoes -12.7861
489
root -7.84851 15.1006 12.0741 2.51754 135.285 -359.705
lowerback 9.35438 2.08839 1.75469
upperback 3.99551 3.1339 -0.632784
thorax -0.966115 1.68186 -1.94899
lowerneck -1.28206 11.8181 14.9729
upperneck -5.2234 15.554 -15.0966
head 1.06325 7.8103 -6.4138
rclavicle 4.68448e-014 -7.20594e-015
rhumerus -39.3911 -3.09773 -79.6744
rradius 41.4247
rwrist -25.4957
rhand -26.024 -0.774512
rfingers 7.12502
rthumb 0.522584 -30.7536
lclavicle 4.68448e-014 -7.20594e-015
lhumerus -29.8197 14.2931 76.3088
lradius 32.4747
lwrist -6.93983
lhand -17.5249 9.15099
lfingers 7.12502
lthumb 8.72883 38.9505
rfemur -10.491 13.357 27.4986
rtibia 30.0398
rfoot -41.6151 -31.2129
rtoes -8.46477
lfemur -9.93791 -9.39385 -16.071
ltibia 34.3431
lfoot -26.2719 20.6814
ltoes -12.357
